# xmcd CD database file
#
# Track frame offsets:
#	150
#	11970
#	27710
#	36530
#	45830
#	58130
#	71650
#	82565
#	94110
#	104130
#	115450
#	127290
#	137240
#	149355
#	161200
#	171535
#	182795
#	194005
#	205520
#	214715
#
# Disc length: 2994 seconds
#
# Revision: 1
# Processed by: cddbd v1.5.2PL0 Copyright (c) Steve Scherf et al.
# Submitted via: CDex 1.51
#
DISCID=3f0bb014
DTITLE=Elvis Presley - Elvis At Sun
DYEAR=2004
DGENRE=Rock and Roll
TTITLE0=Harbor Lights
TTITLE1=I Love You Because (Alternate Take 2)
TTITLE2=That's All Right
TTITLE3=Blue Moon Of Kentucky
TTITLE4=Blue Moon
TTITLE5=Tomorrow Night
TTITLE6=I'll Nevre Let You Go (Little Darlin')
TTITLE7=Just Because
TTITLE8=Good Rockin' Tonight
TTITLE9=I Don't Care If The Sun Don't Shine
TTITLE10=Milkcow Blues Boogie
TTITLE11=You're A Heartbreaker
TTITLE12=I'm Left, You're Right, She's Gone (Slow Version)
TTITLE13=I'm Left, You're Right, She's Gone
TTITLE14=Baby Let's Play House
TTITLE15=I Forgot To Remember To Forget
TTITLE16=Mystery Train
TTITLE17=Trying To Get You
TTITLE18=When It Rains It Really Pours
TTITLE19=That's All Right (Alternate Take)
EXTD=YEAR: 2004
EXTT0=
EXTT1=
EXTT2=
EXTT3=
EXTT4=
EXTT5=
EXTT6=
EXTT7=
EXTT8=
EXTT9=
EXTT10=
EXTT11=
EXTT12=
EXTT13=
EXTT14=
EXTT15=
EXTT16=
EXTT17=
EXTT18=
EXTT19=
PLAYORDER=
